<?xml version="1.0" standalone="no"?>
<!DOCTYPE svg PUBLIC "-//W3C//DTD SVG 20010904//EN"
 "http://www.w3.org/TR/2001/REC-SVG-20010904/DTD/svg10.dtd">
<svg version="1.0" xmlns="http://www.w3.org/2000/svg"
 width="512.000000pt" height="512.000000pt" viewBox="0 0 512.000000 512.000000"
 preserveAspectRatio="xMidYMid meet">
<metadata>
Created by potrace 1.14, written by Peter Selinger 2001-2017
</metadata>
<g transform="translate(0.000000,512.000000) scale(0.100000,-0.100000)"
fill="#000000" stroke="none">
<path d="M1379 5114 c-36 -11 -43 -50 -44 -229 0 -95 -3 -176 -6 -180 -7 -6
-24 -10 -107 -19 -29 -4 -58 -9 -65 -12 -13 -5 -23 14 -140 268 -25 53 -54
101 -65 107 -33 18 -67 13 -92 -13 -38 -41 -39 -38 84 -299 25 -55 46 -102 46
-105 0 -4 -46 -30 -103 -59 -197 -100 -349 -214 -537 -403 -99 -99 -219 -236
-244 -278 -13 -22 93 -152 260 -317 121 -120 151 -147 229 -206 273 -206 517
-301 775 -302 139 0 202 10 335 55 234 78 449 221 686 458 129 128 259 280
259 301 0 29 -301 354 -415 449 -98 82 -320 228 -372 244 -48 15 -46 26 38
205 44 94 82 184 85 199 7 37 -33 82 -74 82 -38 0 -63 -28 -105 -120 -19 -41
-56 -119 -81 -173 -25 -55 -46 -102 -46 -106 0 -4 -43 2 -95 13 l-95 21 0 185
c0 160 -3 188 -18 207 -17 23 -63 36 -93 27z"/>
<path d="M3585 5028 c-306 -48 -547 -163 -761 -360 -82 -77 -99 -138 -60 -219
45 -96 177 -111 263 -31 220 205 478 304 768 296 60 -1 133 -8 160 -14 28 -6
60 -14 73 -16 130 -25 317 -127 451 -246 68 -61 104 -77 157 -73 46 4 83 25
117 67 25 31 30 47 30 86 -1 27 -8 63 -17 79 -29 58 -182 182 -321 262 -82 47
-242 116 -290 125 -11 2 -40 9 -64 16 -130 35 -378 49 -506 28z"/>
<path d="M3704 4262 c-134 -108 -315 -288 -399 -396 -16 -22 -39 -51 -51 -65
-11 -14 -38 -53 -59 -86 -21 -33 -45 -71 -55 -85 -25 -37 -84 -166 -112 -245
-64 -176 -77 -372 -38 -550 58 -265 225 -538 496 -810 122 -123 277 -255 299
-255 18 0 217 172 322 281 153 157 257 296 347 462 26 48 49 87 51 87 2 0 37
-15 77 -34 40 -18 109 -50 153 -70 44 -20 91 -42 105 -50 48 -25 111 -3 123
43 8 33 -19 77 -59 96 -22 10 -79 37 -129 60 -151 70 -210 98 -212 99 -1 1 6
42 15 91 l18 90 190 5 c104 3 195 9 202 13 6 5 18 20 26 35 19 37 -1 86 -40
99 -16 5 -105 9 -197 8 -93 0 -170 2 -172 5 -5 8 -18 121 -19 159 l-1 34 169
78 c92 43 175 84 183 91 41 34 30 102 -20 123 -36 15 -27 18 -225 -74 -85 -39
-157 -71 -162 -71 -5 0 -12 10 -15 23 -17 56 -135 257 -212 359 -47 62 -147
174 -222 248 -130 130 -280 260 -298 260 -4 0 -40 -26 -79 -58z"/>
<path d="M1769 2690 c-205 -139 -463 -366 -624 -549 -226 -258 -362 -459 -499
-736 -121 -245 -192 -445 -251 -705 -52 -231 -50 -312 10 -435 63 -127 157
-205 304 -250 68 -21 825 -21 905 0 145 38 251 147 286 293 17 75 17 2396 0
2417 -21 26 -55 17 -131 -35z"/>
<path d="M2470 2472 c-77 -121 -139 -243 -146 -289 -3 -21 -7 -40 -9 -41 -4
-5 12 -57 31 -99 16 -35 62 -75 109 -94 82 -33 196 4 250 80 26 37 30 51 30
110 0 58 -5 78 -42 151 -35 73 -157 271 -165 270 -2 -1 -28 -40 -58 -88z"/>
<path d="M2997 1429 c-128 -31 -270 -106 -379 -200 -25 -22 -27 -28 -22 -84 5
-60 20 -167 27 -195 2 -8 7 -28 11 -45 32 -132 114 -300 205 -419 188 -248
488 -425 781 -462 81 -10 257 -12 304 -3 23 4 57 9 76 12 66 9 165 38 250 75
231 98 420 259 553 474 45 71 116 231 130 288 3 14 10 43 16 65 14 58 20 100
28 188 7 88 5 92 -84 158 -106 79 -238 136 -370 159 -96 17 -276 8 -371 -19
-114 -33 -246 -105 -331 -181 l-34 -30 -26 22 c-14 13 -28 26 -31 29 -3 3 -32
24 -65 47 -94 63 -200 106 -325 132 -80 16 -252 11 -343 -11z"/>
</g>
</svg>
